# xmcd
#
# Track frame offsets:
#        187
#        12940
#        31920
#        45865
#        62135
#        78072
#        90782
#        102342
#        118082
#        129145
#        143270
#
# Disc length: 2017 seconds
#
# Revision: 2
# Processed by: cddbd v1.5.1PL2 Copyright (c) Steve Scherf et al.
# Submitted via: ExactAudioCopy v0.95b3
#
DISCID=6f07df0b
DTITLE=Cream - Disraeli Gears
DYEAR=1967
DGENRE=Rock
TTITLE0=Strange Brew
TTITLE1=Sunshine Of Your Love
TTITLE2=World Of Pain
TTITLE3=Dance The Night Away
TTITLE4=Blue Condition
TTITLE5=Tales Of Brave Ulysses
TTITLE6=Swlabr
TTITLE7=We're Going Wrong
TTITLE8=Outside Woman Blues
TTITLE9=Take It Back
TTITLE10=Mother's Lament
EXTD=
EXTT0=
EXTT1=
EXTT2=
EXTT3=
EXTT4=
EXTT5=
EXTT6=
EXTT7=
EXTT8=
EXTT9=
EXTT10=
PLAYORDER=
